<svg width="383" height="443" viewBox="0 0 383 443" fill="none" xmlns="http://www.w3.org/2000/svg">
<path fill-rule="evenodd" clip-rule="evenodd" d="M375.634 105.234L305.709 63.4562C303.601 62.0736 301.156 61.3395 298.66 61.3395C296.164 61.3395 293.719 62.0736 291.611 63.4562L275.286 73.4048V56.9794C275.362 54.4416 274.751 51.9322 273.52 49.7356C272.289 47.5391 270.488 45.743 268.321 44.551C245.032 30.6055 221.723 16.6794 198.396 2.77283C196.288 1.39022 193.843 0.656128 191.347 0.656128C188.851 0.656128 186.406 1.39022 184.298 2.77283L114.57 44.4343C112.327 45.6389 110.464 47.4819 109.2 49.7459C107.936 52.01 107.324 54.6008 107.436 57.2128V73.4048L90.857 63.5146C88.7487 62.132 86.3041 61.3979 83.8081 61.3979C81.312 61.3979 78.8674 62.132 76.7591 63.5146L7.1437 105.118C4.90985 106.333 3.05437 108.179 1.79194 110.44C0.529507 112.702 -0.088253 115.287 0.0101673 117.896C0.0101673 131.754 0.0101673 145.583 0.0101673 159.441V201.277C-0.0798452 203.833 0.528546 206.363 1.76543 208.577C3.00232 210.791 4.81759 212.599 7.00275 213.793L76.8437 255.513C78.952 256.896 81.3966 257.63 83.8926 257.63C86.3887 257.63 88.8333 256.896 90.9416 255.513C114.288 241.587 137.624 227.642 160.952 213.677C163.11 212.494 164.903 210.707 166.124 208.519C167.346 206.331 167.948 203.832 167.86 201.307C167.86 195.851 167.86 190.366 167.86 184.881L184.382 194.772V248.453L114.57 289.969C112.331 291.179 110.472 293.023 109.209 295.286C107.946 297.548 107.331 300.136 107.436 302.747C107.436 316.605 107.436 330.434 107.436 344.292V386.128C107.346 388.684 107.955 391.214 109.191 393.428C110.428 395.642 112.244 397.45 114.429 398.644L184.27 440.364C186.378 441.747 188.823 442.481 191.319 442.481C193.815 442.481 196.259 441.747 198.368 440.364C221.714 426.438 245.05 412.493 268.378 398.528C270.532 397.34 272.321 395.551 273.542 393.365C274.763 391.178 275.367 388.682 275.286 386.158V302.514C275.362 299.976 274.751 297.467 273.52 295.27C272.289 293.073 270.488 291.277 268.321 290.085C244.956 276.14 221.61 262.262 198.283 248.453V194.859L214.862 184.94V201.277C214.772 203.833 215.381 206.363 216.617 208.577C217.854 210.791 219.669 212.599 221.855 213.793L291.696 255.513C293.804 256.896 296.249 257.63 298.745 257.63C301.241 257.63 303.685 256.896 305.794 255.513C329.14 241.587 352.476 227.642 375.804 213.677C377.954 212.488 379.739 210.698 380.956 208.511C382.172 206.324 382.771 203.828 382.683 201.307C382.683 173.416 382.683 145.525 382.683 117.634C382.757 115.09 382.134 112.576 380.887 110.382C379.64 108.189 377.819 106.404 375.634 105.234ZM263.697 298.05C264.523 298.497 265.206 299.18 265.666 300.018C266.126 300.856 266.343 301.814 266.291 302.776V386.128C266.335 387.074 266.114 388.012 265.653 388.83C265.193 389.648 264.514 390.311 263.697 390.738L193.884 432.487C193.113 432.993 192.218 433.261 191.305 433.261C190.391 433.261 189.496 432.993 188.725 432.487L118.912 390.767C118.081 390.332 117.391 389.657 116.925 388.822C116.459 387.988 116.239 387.032 116.29 386.07C116.29 372.183 116.29 358.305 116.29 344.438C116.29 330.57 116.29 316.654 116.29 302.689C116.246 301.743 116.467 300.805 116.928 299.987C117.388 299.169 118.067 298.506 118.884 298.079L188.612 256.389C189.423 255.847 190.368 255.559 191.333 255.559C192.298 255.559 193.243 255.847 194.054 256.389L263.697 298.05ZM158.893 201.277C158.93 202.229 158.702 203.171 158.238 203.993C157.773 204.815 157.091 205.483 156.271 205.916L86.3739 247.578C85.6046 248.09 84.7089 248.363 83.794 248.363C82.879 248.363 81.9834 248.09 81.2141 247.578L11.4013 205.858C10.5729 205.42 9.88456 204.744 9.41929 203.91C8.95402 203.077 8.73167 202.122 8.77906 201.161C8.77906 187.274 8.77906 173.396 8.77906 159.528C8.77906 145.661 8.77906 131.744 8.77906 117.779C8.73509 116.834 8.95664 115.896 9.41697 115.078C9.87729 114.26 10.5567 113.597 11.3731 113.17L81.1013 71.4792C81.9123 70.9378 82.857 70.6499 83.8222 70.6499C84.7873 70.6499 85.732 70.9378 86.5431 71.4792L107.352 83.9077V140.507C107.262 143.062 107.87 145.592 109.107 147.806C110.344 150.02 112.159 151.828 114.344 153.023L158.809 179.572C158.893 186.836 158.865 194.042 158.893 201.219V201.277ZM158.893 169.185L118.912 145.32C118.081 144.878 117.392 144.196 116.927 143.358C116.461 142.519 116.24 141.56 116.29 140.594C116.29 126.746 116.29 112.868 116.29 98.9618V89.2758C129.598 97.2308 142.916 105.186 156.243 113.141C157.071 113.586 157.759 114.268 158.224 115.106C158.688 115.944 158.911 116.902 158.865 117.867C158.846 134.905 158.856 151.963 158.893 169.039V169.185ZM193.884 187.011C193.115 187.524 192.22 187.796 191.305 187.796C190.39 187.796 189.494 187.524 188.725 187.011L167.747 174.466V117.692C167.835 115.148 167.229 112.63 165.997 110.426C164.765 108.223 162.958 106.423 160.783 105.234L116.29 78.6562C116.29 71.4793 116.29 64.2731 116.29 57.0961C116.247 56.1471 116.469 55.2053 116.929 54.383C117.389 53.5606 118.067 52.8922 118.884 52.4573C142.117 38.6091 165.36 24.7219 188.612 10.7959C189.42 10.2474 190.366 9.95523 191.333 9.95523C192.299 9.95523 193.245 10.2474 194.054 10.7959L263.697 52.399C264.525 52.843 265.211 53.5257 265.671 54.3645C266.131 55.2034 266.347 56.1623 266.291 57.1253V78.6562L221.967 105.118C219.737 106.335 217.885 108.181 216.627 110.443C215.37 112.705 214.758 115.289 214.862 117.896V174.349L193.884 187.011ZM223.716 117.925C223.672 116.98 223.893 116.041 224.354 115.223C224.814 114.405 225.493 113.743 226.31 113.316L266.291 89.3925V140.507C266.335 141.452 266.114 142.39 265.653 143.208C265.193 144.026 264.514 144.689 263.697 145.116L223.716 169.01V159.499C223.716 145.612 223.744 131.754 223.716 117.779V117.925ZM373.717 201.365C373.76 202.314 373.538 203.256 373.078 204.078C372.618 204.901 371.94 205.569 371.123 206.004C347.833 219.891 324.563 233.798 301.31 247.724C300.541 248.236 299.646 248.509 298.73 248.509C297.816 248.509 296.92 248.236 296.151 247.724L226.338 206.004C225.507 205.569 224.817 204.893 224.351 204.059C223.885 203.225 223.665 202.269 223.716 201.307V179.805C238.584 170.936 253.434 162.067 268.265 153.198C270.46 152.012 272.285 150.207 273.527 147.992C274.77 145.776 275.38 143.241 275.286 140.682V83.966L296.151 71.4792C296.962 70.9378 297.906 70.6499 298.871 70.6499C299.837 70.6499 300.781 70.9378 301.592 71.4792L371.151 113.141C371.977 113.588 372.66 114.271 373.12 115.109C373.58 115.947 373.797 116.905 373.745 117.867L373.717 201.365Z" fill="url(#paint0_linear_115_6708)"/>
<defs>
<linearGradient id="paint0_linear_115_6708" x1="-6.02664" y1="311.8" x2="382.847" y2="303.975" gradientUnits="userSpaceOnUse">
<stop stop-color="#ED5C29"/>
<stop offset="0.540879" stop-color="#EC008B"/>
<stop offset="0.753731" stop-color="#902F96"/>
<stop offset="1" stop-color="#342F95"/>
</linearGradient>
</defs>
</svg>
